<?xml version="1.0" encoding="utf-8"?>
<!-- Generator: Adobe Illustrator 22.0.0, SVG Export Plug-In . SVG Version: 6.00 Build 0)  -->
<svg version="1.1" id="Layer_1" xmlns="http://www.w3.org/2000/svg" xmlns:xlink="http://www.w3.org/1999/xlink" x="0px" y="0px"
	 viewBox="0 0 1703.4 429.4" style="enable-background:new 0 0 1703.4 429.4;" xml:space="preserve">
<style type="text/css">
	.st0{fill:#191947;}
	.st1{fill:#F75E78;}
</style>
<g>
	<g>
		<g>
			<g>
				<path class="st0" d="M628.6,177.3c0,35.3-21,55.2-59.8,55.2h-28.3v56.8h-33.7V122.3h64.3C609.7,122.3,628.6,147.1,628.6,177.3z
					 M594.7,177c0-16.6-9.8-26.7-27.4-26.7h-26.9v54h27.1C584.9,204.4,594.7,196.4,594.7,177z"/>
				<path class="st0" d="M640,230.8c0.2-37.2,22.7-61.5,58.7-61.5c37.2,0,58.9,23.8,58.9,61.5c0,36.9-22.2,61.5-58.9,61.5
					C662.5,292.3,639.8,267.8,640,230.8z M726.5,230.8c0-23.6-9.8-35.3-27.8-35.3c-17.5,0-27.6,11.7-27.6,35.3
					c0,23.6,9.8,35.3,27.6,35.3C716.7,266.1,726.5,254.4,726.5,230.8z"/>
				<path class="st0" d="M780,122.3h32v166.9h-32V122.3z"/>
				<path class="st0" d="M947.6,172.4l-47.9,119.9c-7.9,19.9-20.8,43.7-47.7,43.7c-10.8,0-20.8-3.7-28.3-10.5l11.2-22
					c4.4,3.5,9.4,5.6,15.4,5.6c9.4,0,15-5.8,19.6-16.6l3-7.5l-44.9-112.7h32.7l27.6,78.6l26.7-78.6H947.6z"/>
			</g>
		</g>
		<g>
			<g>
				<path class="st0" d="M1052.4,150.6v39.5h63.8v28.3h-63.8v70.8h-33.7V122.3H1126v28.3H1052.4z"/>
				<path class="st0" d="M1136.3,230.8c0.2-37.2,22.7-61.5,58.7-61.5c37.2,0,58.9,23.8,58.9,61.5c0,36.9-22.2,61.5-58.9,61.5
					C1158.7,292.3,1136,267.8,1136.3,230.8z M1222.8,230.8c0-23.6-9.8-35.3-27.8-35.3c-17.5,0-27.6,11.7-27.6,35.3
					c0,23.6,9.8,35.3,27.6,35.3C1212.9,266.1,1222.8,254.4,1222.8,230.8z"/>
				<path class="st0" d="M1360,173.5l-6.5,25.2c-5.1-1.6-9.4-2.6-14.3-2.6c-10.1,0-21.3,4.2-30.9,13.1v80h-32.3V172.4h31.1v13.6
					c9.4-9.8,21.3-16.6,35.1-16.6C1348.3,169.3,1355.1,170.7,1360,173.5z"/>
				<path class="st0" d="M1484.2,172.4v116.9h-30.2v-12.9c-11.9,9.4-25,15.7-41.6,15.7c-22.4,0-37.6-12.6-37.6-38.3v-81.4h31.8v74.1
					c0,13.8,5.8,19.2,15.9,19.2c11.2,0,21-5.6,30.2-13.3v-80H1484.2z"/>
				<path class="st0" d="M1699.6,207.7v81.6h-32.5v-74.6c0-12.2-3.5-18.9-15.2-18.9c-10.3,0-19.9,4-29.7,12.6v80.9h-32.5v-74.6
					c0-12.2-3.7-18.9-15.4-18.9c-9.8,0-19.4,4.4-29.7,13.3v80.2h-32.5V172.4h30.2v14.7c13.1-11,27.6-17.8,43-17.8
					s26.7,5.8,32.5,17.1c12.9-10.5,27.8-17.1,43.7-17.1C1684.4,169.3,1699.6,182.4,1699.6,207.7z"/>
			</g>
		</g>
	</g>
	<g>
		<g>
			<g>
				<path class="st1" d="M394.9,281.2c2.1-0.9,4.2-1.7,6.4-2.5c14.1-7.2,24.5-32.7,24.5-63c0-30.3-10.4-55.8-24.5-63
					c-2.1-0.8-4.3-1.6-6.4-2.5c-52.1-21.4-93.8-63-115.2-115.2c-0.8-2-1.6-4.1-2.4-6.2h0c-7.1-14.1-32.7-24.6-63-24.6
					s-55.9,10.5-63,24.6h0c-0.8,2.1-1.6,4.1-2.4,6.2c15.6,42.2,37.9,81.1,65.5,115.6c1.8,2.2,3.6,4.5,5.5,6.7
					c1.8,2.2,3.7,4.4,5.6,6.6c0,0,0,0,0,0c1.1,1.3,2.2,2.5,3.3,3.8c3.4,3.8,6.8,7.4,10.3,11.1c0,0,0,0,0,0
					c8.6,9,17.7,17.6,27.1,25.8c0,0,0,0,0,0c4.3,3.8,8.8,7.5,13.3,11.1c-18.3,14.7-35.4,30.9-51,48.4l2.6,3.3
					c25.3,31.5,45.9,66.2,61.6,103.2C315.7,330.6,351.7,299,394.9,281.2z"/>
				<path class="st1" d="M33.6,150.3c-2.1,0.9-4.2,1.7-6.4,2.5c-14.1,7.2-24.5,32.7-24.5,63c0,30.3,10.4,55.8,24.5,63
					c2.1,0.8,4.3,1.6,6.4,2.5c52.1,21.4,93.8,63,115.2,115.2c0.8,2,1.6,4.1,2.4,6.2h0c7.1,14.1,32.7,24.6,63,24.6s55.9-10.5,63-24.6
					h0c0.8-2.1,1.6-4.1,2.4-6.2c-15.6-42.2-37.9-81.1-65.5-115.6c-1.8-2.2-3.6-4.5-5.5-6.7c-1.8-2.2-3.7-4.4-5.6-6.6c0,0,0,0,0,0
					c-1.1-1.3-2.2-2.5-3.3-3.8c-3.4-3.8-6.8-7.4-10.3-11.1c0,0,0,0,0,0c-8.6-9-17.7-17.6-27.1-25.8c0,0,0,0,0,0
					c-4.3-3.8-8.8-7.5-13.3-11.1c18.3-14.7,35.4-30.9,51-48.4l-2.6-3.3c-25.3-31.5-45.9-66.2-61.6-103.2
					C112.8,100.9,76.8,132.5,33.6,150.3z"/>
			</g>
		</g>
	</g>
</g>
</svg>
