<?xml version="1.0" encoding="utf-8"?>
<!-- Generator: Adobe Illustrator 22.0.0, SVG Export Plug-In . SVG Version: 6.00 Build 0)  -->
<svg version="1.1" id="Layer_1" xmlns="http://www.w3.org/2000/svg" xmlns:xlink="http://www.w3.org/1999/xlink" x="0px" y="0px"
	 viewBox="0 0 1550.5 430.1" style="enable-background:new 0 0 1550.5 430.1;" xml:space="preserve">
<style type="text/css">
	.st0{fill:#191947;}
	.st1{fill:#02BC9D;}
</style>
<g>
	<g>
		<g>
			<g>
				<path class="st0" d="M629.8,177.2c0,35.3-21,55.2-59.8,55.2h-28.3v56.8H508V122.3h64.3C610.9,122.3,629.8,147.1,629.8,177.2z
					 M595.9,177c0-16.6-9.8-26.7-27.4-26.7h-26.9v54h27.1C586.1,204.4,595.9,196.4,595.9,177z"/>
				<path class="st0" d="M641.3,230.8c0.2-37.2,22.7-61.5,58.7-61.5c37.2,0,58.9,23.8,58.9,61.5c0,36.9-22.2,61.5-58.9,61.5
					C663.7,292.3,641,267.7,641.3,230.8z M727.8,230.8c0-23.6-9.8-35.3-27.8-35.3c-17.5,0-27.6,11.7-27.6,35.3
					c0,23.6,9.8,35.3,27.6,35.3C717.9,266.1,727.8,254.4,727.8,230.8z"/>
				<path class="st0" d="M781.2,122.3h32v166.9h-32V122.3z"/>
				<path class="st0" d="M948.9,172.3l-47.9,119.9c-7.9,19.9-20.8,43.7-47.7,43.7c-10.8,0-20.8-3.7-28.3-10.5l11.2-22
					c4.4,3.5,9.4,5.6,15.4,5.6c9.4,0,15-5.8,19.6-16.6l3-7.5l-44.9-112.7h32.7l27.6,78.6l26.7-78.6H948.9z"/>
			</g>
		</g>
		<g>
			<g>
				<path class="st0" d="M1112.1,247.9h-60.8l-14,41.4h-34.8l62-166.9h35.3l61.5,166.9h-34.8L1112.1,247.9z M1102.5,219.6
					l-20.8-60.5l-20.6,60.5H1102.5z"/>
				<path class="st0" d="M1255.4,279.9c-9.8,7.5-21.5,11.9-36.7,11.9c-25.5,0-40-15.9-40-42.8v-54.7h-17.5v-22h17.5v-36.2h31.8v36.2
					h37.9v22h-37.9v51.9c0,13.8,8.9,17.3,16.1,17.3c5.8,0,12.6-2.3,18.7-6.3L1255.4,279.9z"/>
				<path class="st0" d="M1270.6,122.3h32v166.9h-32V122.3z"/>
				<path class="st0" d="M1430.4,217.9v71.3h-28.1V274c-8.2,11-20.8,18-37.9,18c-24.1,0-40.2-14.3-40.2-36.2
					c0-28.8,27.4-38.6,57-38.6c6.8,0,13.6,0.5,19.9,1.4V217c0-15.2-10.3-22.4-24.8-22.4c-11,0-23.4,4-35.5,13.3l-13.6-19.9
					c12.6-11.9,32-18.7,51.4-18.7C1409.6,169.3,1430.4,186.6,1430.4,217.9z M1401.2,237.3c-6.1-0.5-11.9-0.7-17.5-0.7
					c-15.2,0-27.8,4.4-27.8,17.1c0,8.7,6.3,14.7,16.4,14.7C1389.5,268.4,1400,255.3,1401.2,237.3z"/>
				<path class="st0" d="M1447.3,274l12.6-20.1c12.4,10.1,25.5,13.8,34.8,13.8c9.8,0,18.2-4,18.2-11.5c0-9.4-12.6-11.9-25.2-16.1
					c-18.7-6.3-33.9-14.5-33.9-34.1c0-23.6,20.3-36.7,47.2-36.7c16.6,0,32.7,5.4,44,13.6l-12.2,19.9c-10.8-6.5-21.3-9.8-30.4-9.8
					c-10.5,0-17.1,4.4-17.1,10.5c0,7.9,9.8,10.8,20.6,14.3c19.2,6.3,40.2,13.1,40.2,36.7c0,24.5-23.6,37.4-50,37.4
					C1477.7,291.8,1459.5,285.7,1447.3,274z"/>
			</g>
		</g>
	</g>
	<g>
		<g>
			<g>
				<path class="st1" d="M396.2,281.2c2.1-0.9,4.2-1.7,6.4-2.5c14.1-7.2,24.5-32.7,24.5-63c0-30.3-10.4-55.8-24.5-63
					c-2.1-0.8-4.3-1.6-6.4-2.5C344,128.8,302.4,87.2,281,35.1c-0.8-2-1.6-4.1-2.4-6.2h0c-7.1-14.1-32.7-24.6-63-24.6
					s-55.9,10.5-63,24.6h0c-0.8,2.1-1.6,4.1-2.4,6.2c15.6,42.2,37.9,81.1,65.5,115.6c1.8,2.2,3.6,4.5,5.5,6.7
					c1.8,2.2,3.7,4.4,5.6,6.6c0,0,0,0,0,0c1.1,1.3,2.2,2.5,3.3,3.8c3.4,3.8,6.8,7.4,10.3,11.1c0,0,0,0,0,0
					c8.6,9,17.7,17.6,27.1,25.8c0,0,0,0,0,0c4.3,3.8,8.8,7.5,13.3,11.1c-18.3,14.7-35.4,30.9-51,48.4l2.6,3.3
					c25.3,31.5,45.9,66.2,61.6,103.2C317,330.6,353,298.9,396.2,281.2z"/>
				<path class="st1" d="M34.9,150.2c-2.1,0.9-4.2,1.7-6.4,2.5C14.4,160,4,185.4,4,215.7c0,30.3,10.4,55.8,24.5,63
					c2.1,0.8,4.3,1.6,6.4,2.5c52.1,21.4,93.8,63,115.2,115.2c0.8,2,1.6,4.1,2.4,6.2h0c7.1,14.1,32.7,24.6,63,24.6
					c30.4,0,55.9-10.5,63-24.6h0c0.8-2.1,1.6-4.1,2.4-6.2c-15.6-42.2-37.9-81.1-65.5-115.6c-1.8-2.2-3.6-4.5-5.5-6.7
					c-1.8-2.2-3.7-4.4-5.6-6.6c0,0,0,0,0,0c-1.1-1.3-2.2-2.5-3.3-3.8c-3.4-3.8-6.8-7.4-10.3-11.1c0,0,0,0,0,0
					c-8.6-9-17.7-17.6-27.1-25.8c0,0,0,0,0,0c-4.3-3.8-8.8-7.5-13.3-11.1c18.3-14.7,35.4-30.9,51-48.4l-2.6-3.3
					c-25.3-31.5-45.9-66.2-61.6-103.2C114,100.9,78,132.5,34.9,150.2z"/>
			</g>
		</g>
	</g>
</g>
</svg>
