<?xml version="1.0" encoding="utf-8"?>
<!-- Generator: Adobe Illustrator 22.0.0, SVG Export Plug-In . SVG Version: 6.00 Build 0)  -->
<svg version="1.1" id="Artwork_1_" xmlns="http://www.w3.org/2000/svg" xmlns:xlink="http://www.w3.org/1999/xlink" x="0px" y="0px"
	 viewBox="0 0 6095.9 1985" style="enable-background:new 0 0 6095.9 1985;" xml:space="preserve">
<style type="text/css">
	.st0{fill:#191947;}
	.st1{fill:#7800FF;}
</style>
<g id="Wordmark">
	<g>
		<g>
			<path class="st0" d="M2932.5,848.8c0,165.3-98.5,258.4-280.3,258.4h-132.5v266.1H2362V591.5h301.1
				C2843.8,591.5,2932.5,707.6,2932.5,848.8z M2773.7,847.7c0-77.7-46-124.8-128.1-124.8h-125.9v252.9h127
				C2727.7,975.8,2773.7,938.6,2773.7,847.7z"/>
			<path class="st0" d="M2989.3,1099.6c1.1-174.1,106.2-288,274.8-288c174.1,0,275.9,111.7,275.9,288c0,173-104,288-275.9,288
				C3094.4,1387.6,2988.2,1272.6,2989.3,1099.6z M3394.5,1099.6c0-110.6-46-165.3-130.3-165.3c-82.1,0-129.2,54.8-129.2,165.3
				c0,110.6,46,165.3,129.2,165.3C3348.5,1264.9,3394.5,1210.2,3394.5,1099.6z"/>
			<path class="st0" d="M3648.2,591.5h150v781.8h-150V591.5z"/>
			<path class="st0" d="M4436.7,825.8l-224.5,561.7c-37.2,93.1-97.5,204.8-223.4,204.8c-50.4,0-97.5-17.5-132.5-49.3l52.6-102.9
				c20.8,16.4,43.8,26.3,72.3,26.3c43.8,0,70.1-27.4,92-77.7l14.2-35l-210.2-527.8h153.3l129.2,367.9l124.8-367.9h152.2V825.8z"/>
			<path class="st0" d="M4721.1,802.8v23h186.2v102.9h-186.2v444.6h-146.7V928.8h-78.8v-103h78.8v-26.3
				c0-189.4,151.1-222.3,217.9-222.3c51.5,0,117.2,16.4,168.6,54.8l-50.4,98.6c-31.8-18.6-61.3-28.5-89.8-28.5
				C4763.8,702.1,4721.1,731.7,4721.1,802.8z"/>
			<path class="st0" d="M5401.3,1209.1l60.2,96.4c-67.9,53.7-154.4,81-235.4,81c-170.8,0-274.8-119.4-274.8-279.2
				c0-157.7,102.9-295.7,285.8-295.7c121.5,0,230,66.8,230,190.5c0,83.2-48.2,156.6-171.9,156.6h-203.7
				c14.2,66.8,60.2,108.4,144.5,108.4C5289.7,1267.1,5352.1,1245.2,5401.3,1209.1z M5088.2,1058h175.2c44.9,0,69-25.2,69-60.2
				c0-39.4-37.2-73.4-96.4-73.4C5167,924.4,5103.5,970.4,5088.2,1058z"/>
			<path class="st0" d="M6092.4,991.2v382.2h-151.1v-347.1c0-61.3-20.8-90.9-73.4-90.9c-43.8,0-93.1,20.8-140.2,56.9v381.1h-153.3
				V825.8h141.3v58c61.3-46,128.1-72.3,197.1-72.3C6024.5,811.6,6092.4,874,6092.4,991.2z"/>
		</g>
	</g>
</g>
<g id="Ideogram">
	<g>
		<path class="st1" d="M1867.8,697.5c-10-3.7-20-7.7-29.9-11.7c-244.1-100.2-439.2-295.3-539.4-539.4c-3.9-9.5-7.7-19.1-11.3-28.8
			h-0.1c-33.5-66.2-153-115.2-295.3-115.2S730,51.3,696.5,117.5h-0.2c-3.6,9.7-7.4,19.3-11.3,28.8
			c73.2,197.6,177.4,380.1,306.8,541.6c8.4,10.5,17,21,25.6,31.3c8.6,10.3,17.4,20.6,26.2,30.8l0.1,0.1c5.2,5.9,10.4,11.8,15.6,17.7
			c15.7,17.6,31.7,34.9,48,51.9l0,0c40.5,42.2,82.8,82.5,126.8,120.9l0,0c20.3,17.7,41.1,35,62.1,51.9
			c-69.4,55.6-135,115.9-196.1,180.3c-22.5,18.8-48.7,35.4-56.5,29.7l13.8,16.7l12.3,15.3c118.4,147.7,215.1,310,288.3,483.2
			c108.9-187.3,277.5-335.5,479.8-418.5c9.9-4.1,19.8-8,29.9-11.7c65.9-33.8,114.7-153.1,114.7-295
			C1982.5,850.6,1933.7,731.3,1867.8,697.5z"/>
		<path class="st1" d="M966.1,1265.8c-8.6-10.3-17.4-20.6-26.2-30.8l-0.1-0.1c-5.2-5.9-10.4-11.8-15.6-17.7
			c-15.7-17.6-31.7-34.9-48-51.9l0,0c-40.5-42.2-82.8-82.5-126.8-120.9l0,0c-20.3-17.7-41.1-35-62.1-51.9
			c68.7-55,133.5-114.6,194.1-178.2c22.4-19.2,48.8-36.2,56.9-30.3L926,765.8l-12.3-15.3c-118.4-147.7-215.1-310-288.3-483.2
			C516.5,454.5,347.9,602.7,145.6,685.8c-9.9,4.1-19.8,8-29.9,11.7C49.8,731.3,1.1,850.6,1.1,992.5s48.7,261.2,114.7,295
			c10,3.7,20,7.7,29.9,11.7c244.1,100.2,439.2,295.3,539.4,539.4c3.9,9.5,7.7,19.1,11.3,28.8h0.1c33.5,66.2,153,115.2,295.3,115.2
			s261.8-49,295.3-115.2h0.2c3.6-9.7,7.4-19.3,11.3-28.8c-73.2-197.6-177.4-380.1-306.8-541.6
			C983.3,1286.5,974.8,1276.1,966.1,1265.8z"/>
	</g>
</g>
</svg>
