<?xml version="1.0" encoding="utf-8"?>
<!-- Generator: Adobe Illustrator 22.0.0, SVG Export Plug-In . SVG Version: 6.00 Build 0)  -->
<svg version="1.1" id="Layer_1" xmlns="http://www.w3.org/2000/svg" xmlns:xlink="http://www.w3.org/1999/xlink" x="0px" y="0px"
	 viewBox="0 0 1315.9 427.3" style="enable-background:new 0 0 1315.9 427.3;" xml:space="preserve">
<style type="text/css">
	.st0{fill:#191947;}
	.st1{fill:#1E8DF0;}
</style>
<g>
	<g>
		<g>
			<g>
				<path class="st0" d="M621.2,175.6c0,35.3-21,55.2-59.8,55.2h-28.3v56.8h-33.7V120.7h64.3C602.3,120.7,621.2,145.5,621.2,175.6z
					 M587.3,175.4c0-16.6-9.8-26.7-27.4-26.7h-26.9v54h27.1C577.5,202.8,587.3,194.8,587.3,175.4z"/>
				<path class="st0" d="M632.6,229.2c0.2-37.2,22.7-61.5,58.7-61.5c37.2,0,58.9,23.8,58.9,61.5c0,36.9-22.2,61.5-58.9,61.5
					C655.1,290.7,632.4,266.1,632.6,229.2z M719.1,229.2c0-23.6-9.8-35.3-27.8-35.3c-17.5,0-27.6,11.7-27.6,35.3
					c0,23.6,9.8,35.3,27.6,35.3C709.3,264.5,719.1,252.8,719.1,229.2z"/>
				<path class="st0" d="M772.6,120.7h32v166.9h-32V120.7z"/>
				<path class="st0" d="M940.2,170.7l-47.9,119.9c-7.9,19.9-20.8,43.7-47.7,43.7c-10.8,0-20.8-3.7-28.3-10.5l11.2-22
					c4.4,3.5,9.4,5.6,15.4,5.6c9.4,0,15-5.8,19.6-16.6l3-7.5l-44.9-112.7h32.7l27.6,78.6l26.7-78.6H940.2z"/>
				<path class="st0" d="M1030,287.6l-41.6-58.2v58.2h-32.5V120.7h32.5v100.1l41.4-50h35.3l-45.6,53.5l48.2,63.4H1030z"/>
				<path class="st0" d="M1178.7,216.3v71.3h-28.1v-15.2c-8.2,11-20.8,18-37.9,18c-24.1,0-40.2-14.3-40.2-36.2
					c0-28.8,27.4-38.6,57-38.6c6.8,0,13.6,0.5,19.9,1.4v-1.6c0-15.2-10.3-22.4-24.8-22.4c-11,0-23.4,4-35.5,13.3l-13.6-19.9
					c12.6-11.9,32-18.7,51.4-18.7C1157.9,167.7,1178.7,185,1178.7,216.3z M1149.5,235.7c-6.1-0.5-11.9-0.7-17.5-0.7
					c-15.2,0-27.8,4.4-27.8,17.1c0,8.7,6.3,14.7,16.4,14.7C1137.8,266.8,1148.4,253.7,1149.5,235.7z"/>
				<path class="st0" d="M1314.4,120.7v166.9h-29.7v-10.3c-9.6,8.4-21.3,13.3-34.8,13.3c-27.6,0-50.3-22.9-50.3-59.6
					c0-39,24.8-63.4,56.3-63.4c10.1,0,19.2,2.6,26.9,7.2v-54.2H1314.4z M1282.9,253v-50c-6.8-5.8-15.2-9.1-23.1-9.1
					c-15.9,0-27.6,12.4-27.6,36.7c0,19.6,8.4,33.9,25.2,33.9C1265.8,264.5,1275.2,261,1282.9,253z"/>
			</g>
		</g>
	</g>
	<g>
		<g>
			<g>
				<path class="st1" d="M395.2,278.9c2.1-0.9,4.2-1.7,6.4-2.5c14.1-7.2,24.5-32.7,24.5-63c0-30.3-10.4-55.8-24.5-63
					c-2.1-0.8-4.3-1.6-6.4-2.5C343,126.5,301.4,84.9,280,32.7c-0.8-2-1.6-4.1-2.4-6.2h0C270.4,12.5,244.9,2,214.5,2
					s-55.9,10.5-63,24.6h0c-0.8,2.1-1.6,4.1-2.4,6.2c15.6,42.2,37.9,81.1,65.5,115.6c1.8,2.2,3.6,4.5,5.5,6.7
					c1.8,2.2,3.7,4.4,5.6,6.6c0,0,0,0,0,0c1.1,1.3,2.2,2.5,3.3,3.8c3.4,3.8,6.8,7.4,10.3,11.1c0,0,0,0,0,0
					c8.6,9,17.7,17.6,27.1,25.8c0,0,0,0,0,0c4.3,3.8,8.8,7.5,13.3,11.1c-18.3,14.7-35.4,30.9-51,48.4l2.6,3.3
					c25.3,31.5,45.9,66.2,61.6,103.2C316,328.3,352,296.6,395.2,278.9z"/>
				<path class="st1" d="M33.9,147.9c-2.1,0.9-4.2,1.7-6.4,2.5C13.4,157.6,3,183.1,3,213.4c0,30.3,10.4,55.8,24.5,63
					c2.1,0.8,4.3,1.6,6.4,2.5C86,300.3,127.6,341.9,149,394c0.8,2,1.6,4.1,2.4,6.2h0c7.1,14.1,32.7,24.6,63,24.6s55.9-10.5,63-24.6
					h0c0.8-2.1,1.6-4.1,2.4-6.2c-15.6-42.2-37.9-81.1-65.5-115.6c-1.8-2.2-3.6-4.5-5.5-6.7c-1.8-2.2-3.7-4.4-5.6-6.6c0,0,0,0,0,0
					c-1.1-1.3-2.2-2.5-3.3-3.8c-3.4-3.8-6.8-7.4-10.3-11.1c0,0,0,0,0,0c-8.6-9-17.7-17.6-27.1-25.8c0,0,0,0,0,0
					c-4.3-3.8-8.8-7.5-13.3-11.1c18.3-14.7,35.4-30.9,51-48.4l-2.6-3.3c-25.3-31.5-45.9-66.2-61.6-103.2
					C113,98.5,77,130.2,33.9,147.9z"/>
			</g>
		</g>
	</g>
</g>
</svg>
