<svg width="111" height="111" viewBox="0 0 111 111" fill="none" xmlns="http://www.w3.org/2000/svg">
<path d="M23.2788 70.0168C23.2788 76.423 18.0456 81.6563 11.6394 81.6563C5.23323 81.6563 0 76.423 0 70.0168C0 63.6107 5.23323 58.3774 11.6394 58.3774H23.2788V70.0168Z" fill="white"/>
<path d="M29.1438 70.0168C29.1438 63.6107 34.377 58.3774 40.7832 58.3774C47.1894 58.3774 52.4226 63.6107 52.4226 70.0168V99.1605C52.4226 105.567 47.1894 110.8 40.7832 110.8C34.377 110.8 29.1438 105.567 29.1438 99.1605V70.0168Z" fill="white"/>
<path d="M40.7832 23.2788C34.377 23.2788 29.1438 18.0456 29.1438 11.6394C29.1438 5.23323 34.377 0 40.7832 0C47.1894 0 52.4226 5.23323 52.4226 11.6394V23.2788H40.7832Z" fill="white"/>
<path d="M40.7831 29.1438C47.1893 29.1438 52.4225 34.377 52.4225 40.7832C52.4225 47.1894 47.1893 52.4226 40.7831 52.4226H11.6394C5.23323 52.4226 0 47.1894 0 40.7832C0 34.377 5.23323 29.1438 11.6394 29.1438H40.7831Z" fill="white"/>
<path d="M87.5212 40.7832C87.5212 34.377 92.7545 29.1438 99.1606 29.1438C105.567 29.1438 110.8 34.377 110.8 40.7832C110.8 47.1894 105.567 52.4226 99.1606 52.4226H87.5212V40.7832Z" fill="white"/>
<path d="M81.6563 40.7831C81.6563 47.1893 76.423 52.4225 70.0168 52.4225C63.6107 52.4225 58.3774 47.1893 58.3774 40.7831V11.6394C58.3774 5.23323 63.6107 0 70.0168 0C76.423 0 81.6563 5.23323 81.6563 11.6394V40.7831Z" fill="white"/>
<path d="M70.0168 87.5212C76.423 87.5212 81.6563 92.7545 81.6563 99.1606C81.6563 105.567 76.423 110.8 70.0168 110.8C63.6107 110.8 58.3774 105.567 58.3774 99.1606V87.5212H70.0168Z" fill="white"/>
<path d="M70.0168 81.6563C63.6107 81.6563 58.3774 76.423 58.3774 70.0168C58.3774 63.6107 63.6107 58.3774 70.0168 58.3774H99.1605C105.567 58.3774 110.8 63.6107 110.8 70.0168C110.8 76.423 105.567 81.6563 99.1605 81.6563H70.0168Z" fill="white"/>
</svg>
