<?xml version="1.0" encoding="utf-8"?>
<!-- Generator: Adobe Illustrator 22.0.0, SVG Export Plug-In . SVG Version: 6.00 Build 0)  -->
<svg version="1.1" id="Layer_1" xmlns="http://www.w3.org/2000/svg" xmlns:xlink="http://www.w3.org/1999/xlink" x="0px" y="0px"
	 viewBox="0 0 1715.2 389.7" style="enable-background:new 0 0 1715.2 389.7;" xml:space="preserve">
<style type="text/css">
	.st0{fill:#12123A;}
	.st1{fill:url(#SVGID_1_);}
	.st2{fill:url(#SVGID_2_);}
</style>
<g>
	<g>
		<g>
			<path class="st0" d="M602.1,225.5c0,36.7-22,57-62.4,57h-25v53.1h-43.7V168.7h71.3C582.4,168.7,602.1,194.4,602.1,225.5z
				 M558.6,225.5c0-13.3-8.2-21.5-21.5-21.5h-22.4v43.2h22.7C550.6,247.3,558.6,241.4,558.6,225.5z"/>
			<path class="st0" d="M613.6,277.2c0.2-37.4,22.9-61.5,61-61.5c39.3,0,61.3,23.4,61.3,61.5c0,36.9-22.7,61.5-61.3,61.5
				C636.5,338.7,613.4,314.1,613.6,277.2z M695.7,277.2c0-19.6-7.7-28.5-21-28.5c-12.9,0-21,8.9-21,28.5c0,19.6,7.9,28.5,21,28.5
				C687.9,305.7,695.7,296.8,695.7,277.2z"/>
			<path class="st0" d="M757.9,168.7H800v166.9h-42.1V168.7z"/>
			<path class="st0" d="M940.2,218.7L897,327.4c-7.2,18.2-18.2,54.9-56.1,54.9c-11.5,0-22.4-3.5-31.6-10.8l13.6-29.5
				c4.4,3.5,9.8,5.6,15.2,5.6c9.4,0,14.3-5.8,18-13.6l1.9-4l-42.5-111.5H858l20.3,66.4l21-66.4H940.2z"/>
			<path class="st0" d="M1015.1,253.3c0-54.2,34.6-87.7,87.7-87.7c35.1,0,60.8,15.9,72.2,41.1l-33.7,18.9
				c-9.1-18.2-23.4-23.6-38.8-23.6c-26.7,0-43.5,19.6-43.5,50c0,30.6,14,49.6,41.4,49.6c26.2,0,39.3-17.3,39.7-29.9h-35.1v-32.5
				h77.8v20.6c0,42.3-31.3,78.3-82.8,78.3C1046.6,338.2,1015.1,306.4,1015.1,253.3z"/>
			<path class="st0" d="M1301.1,221.1l-9.4,31.8c-5.4-2.3-10.3-3.5-15.7-3.5c-8.9,0-18.9,3.5-27.1,9.8v76.4h-42.1V218.7h40.4v12.4
				c8.9-8.9,19.6-15.4,33.2-15.4C1287.6,215.7,1295.8,217.6,1301.1,221.1z"/>
			<path class="st0" d="M1306.7,277.2c0.2-37.4,22.9-61.5,61-61.5c39.3,0,61.2,23.4,61.2,61.5c0,36.9-22.7,61.5-61.2,61.5
				C1329.6,338.7,1306.4,314.1,1306.7,277.2z M1388.7,277.2c0-19.6-7.7-28.5-21-28.5c-12.9,0-21,8.9-21,28.5
				c0,19.6,7.9,28.5,21,28.5C1381,305.7,1388.7,296.8,1388.7,277.2z"/>
			<path class="st0" d="M1566.1,218.7v116.9h-38.6v-9.1c-10.5,6.8-23.1,11.7-38.6,11.7c-22,0-38.8-12.4-38.8-40v-79.5h41.6v69.9
				c0,12.4,5.4,16.4,13.1,16.4c7.9,0,14.7-3,20.3-6.8v-79.5H1566.1z"/>
			<path class="st0" d="M1713.7,275.5c0,39-26.4,63.1-60.1,63.1c-6.8,0-12.9-0.9-18.5-2.6v44h-41.8V218.7h38.6v7
				c8.9-6.3,19.2-10.1,30.9-10.1C1689.1,215.7,1713.7,237.7,1713.7,275.5z M1671.4,275.8c0-13.1-4.9-26.9-18.7-26.9
				c-5.6,0-11.9,2.6-17.5,7v47.2c5.1,1.9,10.3,2.3,14.5,2.3C1661.1,305.5,1671.4,294.9,1671.4,275.8z"/>
		</g>
		<g>
			<path class="st0" d="M527.7,47.9h-25.9v75.9h-18.4V47.9h-26.2V32.6h70.5V47.9z"/>
			<path class="st0" d="M546.6,32.6H565v37.6h38.3V32.6h18.4v91.2h-18.4V86.4H565v37.4h-18.4V32.6z"/>
			<path class="st0" d="M667.8,48.1v21.6h37.8v15.5h-37.8v23.1h40.9v15.6h-59.3V32.6h60.4v15.5H667.8z"/>
		</g>
		<g>
			<linearGradient id="SVGID_1_" gradientUnits="userSpaceOnUse" x1="17.3235" y1="319.5684" x2="306.9789" y2="2.3263">
				<stop  offset="0" style="stop-color:#8330F9"/>
				<stop  offset="1" style="stop-color:#02BC9D"/>
			</linearGradient>
			<path class="st1" d="M355,98.3c0.9-2.1,1.8-4.2,2.7-6.3c4.8-15.1-5.8-40.4-27.2-61.8C309.1,8.7,283.7-1.9,268.7,2.9
				c-2.1,1-4.2,1.9-6.3,2.7c-52,21.7-110.9,21.7-162.9,0c-2-0.8-4.1-1.7-6.1-2.6l0,0c-15-4.9-40.5,5.7-62,27.2
				C10,51.7-0.7,77.2,4.3,92.2l0,0c0.9,2,1.8,4,2.6,6.1c40.9,18.8,84.2,30.6,128.1,35.5c2.9,0.3,5.7,0.6,8.6,0.9
				c2.9,0.3,5.7,0.5,8.6,0.7c0,0,0,0,0,0c1.7,0.1,3.3,0.2,5,0.3c5,0.3,10.1,0.5,15.1,0.6c0,0,0,0,0,0c12.5,0.3,24.9,0,37.4-0.9h0
				c5.7-0.4,11.5-0.9,17.2-1.5c-2.6,23.3-3.2,46.9-1.8,70.3l4.2,0.5c40.2,4.4,79.3,14.3,116.5,29.4C333.9,189.2,337,141.4,355,98.3z
				"/>
			<linearGradient id="SVGID_2_" gradientUnits="userSpaceOnUse" x1="56.5185" y1="355.3549" x2="346.1739" y2="38.1129">
				<stop  offset="0" style="stop-color:#8330F9"/>
				<stop  offset="1" style="stop-color:#02BC9D"/>
			</linearGradient>
			<path class="st2" d="M268.5,356.4c15,4.9,40.5-5.7,62-27.2c21.5-21.5,32.1-46.9,27.2-62l0,0c-0.9-2-1.8-4-2.6-6.1
				c-40.9-18.8-84.2-30.6-128.1-35.5c-2.9-0.3-5.7-0.6-8.6-0.9c-2.9-0.3-5.7-0.5-8.6-0.7c0,0,0,0,0,0c-1.7-0.1-3.3-0.2-5-0.3
				c-5-0.3-10.1-0.5-15.1-0.6c0,0,0,0,0,0c-12.5-0.3-24.9,0-37.4,0.9c0,0,0,0,0,0c-5.7,0.4-11.5,0.9-17.2,1.5
				c2.6-23.3,3.2-46.9,1.8-70.3l-4.2-0.5c-40.2-4.4-79.3-14.3-116.5-29.4c11.8,44.7,8.8,92.5-9.2,135.6c-0.9,2.1-1.8,4.2-2.7,6.3
				c-4.8,15.1,5.8,40.4,27.2,61.8c21.4,21.4,46.8,32.1,61.8,27.2c2.1-1,4.2-1.9,6.3-2.7c52-21.7,110.9-21.7,162.9,0
				C264.4,354.6,266.4,355.5,268.5,356.4L268.5,356.4"/>
		</g>
	</g>
</g>
</svg>
