<?xml version="1.0" standalone="no"?>
<!DOCTYPE svg PUBLIC "-//W3C//DTD SVG 20010904//EN"
 "http://www.w3.org/TR/2001/REC-SVG-20010904/DTD/svg10.dtd">
<svg version="1.0" xmlns="http://www.w3.org/2000/svg"
 width="720.000000pt" height="720.000000pt" viewBox="0 0 720.000000 720.000000"
 preserveAspectRatio="xMidYMid meet">
<metadata>
Created by potrace 1.11, written by Peter Selinger 2001-2013
</metadata>
<g transform="translate(0.000000,720.000000) scale(0.100000,-0.100000)"
fill="#000000" stroke="none">
<path d="M1700 7161 c0 -3 -26 -6 -58 -6 -87 1 -262 -45 -364 -96 -32 -15 -58
-26 -58 -23 0 3 -12 -3 -27 -14 -16 -10 -48 -29 -73 -41 -155 -78 -403 -276
-560 -447 -35 -38 -67 -71 -70 -74 -17 -15 -150 -191 -150 -199 0 -5 -4 -11
-8 -13 -12 -4 -92 -132 -92 -146 0 -6 -4 -12 -8 -14 -7 -2 -68 -125 -102 -203
-20 -44 -52 -154 -64 -216 -24 -121 -17 -289 14 -334 3 -5 14 -31 24 -56 9
-26 26 -51 39 -57 36 -18 137 -62 142 -62 2 0 28 -11 57 -24 29 -14 89 -39
133 -56 103 -41 126 -50 147 -61 10 -5 22 -9 27 -9 5 0 26 -8 47 -17 22 -9 44
-18 49 -19 6 -2 87 -29 180 -62 94 -32 173 -59 178 -59 8 -2 118 -35 215 -65
34 -11 68 -21 75 -22 6 -2 30 -6 52 -11 22 -4 47 -11 55 -15 8 -5 29 -10 45
-13 27 -5 93 -21 180 -43 17 -4 35 -8 40 -9 6 -1 24 -4 40 -8 17 -4 39 -9 50
-11 11 -3 41 -9 66 -15 25 -6 83 -17 130 -25 46 -9 95 -18 109 -21 14 -3 40
-7 57 -10 31 -4 56 -8 128 -20 34 -6 70 -11 135 -20 25 -3 63 -8 85 -11 57 -7
102 -12 160 -19 28 -2 68 -7 90 -10 306 -38 1061 -49 1355 -20 83 8 154 14
237 21 45 3 90 7 100 8 12 1 17 -5 16 -19 -1 -11 -5 -51 -8 -90 -3 -38 -8 -91
-10 -116 -11 -121 -17 -224 -20 -331 -2 -64 -5 -120 -7 -125 -10 -22 5 -710
17 -721 3 -3 20 -7 38 -9 49 -5 75 -8 227 -28 14 -2 45 -6 70 -9 25 -3 56 -8
70 -10 14 -3 45 -9 70 -12 66 -9 78 -11 150 -24 36 -6 74 -13 85 -15 11 -2 31
-6 45 -9 14 -4 39 -8 55 -10 17 -2 37 -6 45 -9 8 -3 51 -12 95 -21 123 -25
331 -73 342 -79 5 -3 20 -8 34 -11 13 -2 60 -14 104 -26 44 -12 89 -24 100
-27 51 -13 346 -106 390 -122 42 -16 117 -42 135 -46 3 -1 14 -5 25 -9 11 -4
43 -16 70 -26 28 -10 95 -36 150 -58 55 -21 101 -36 103 -32 1 4 -2 27 -8 51
-6 24 -13 55 -16 69 -2 14 -7 31 -10 39 -2 8 -7 30 -10 50 -3 20 -7 42 -9 49
-12 35 -45 262 -61 412 -26 261 -22 646 10 910 19 154 25 191 71 421 2 8 11
46 20 83 9 37 18 72 19 79 2 7 5 19 8 27 5 14 33 113 43 150 10 40 73 212 131
358 36 89 68 181 73 205 29 157 -32 411 -153 631 -18 33 -42 77 -52 96 -18 33
-25 43 -51 74 -7 8 -13 18 -13 22 0 3 -37 54 -82 112 -92 118 -267 300 -371
386 -74 62 -213 166 -221 166 -3 0 -25 13 -49 30 -48 32 -239 130 -259 134 -7
1 -19 5 -26 10 -18 11 -154 54 -194 61 -171 31 -260 22 -418 -44 -174 -73
-437 -166 -525 -186 -11 -2 -47 -12 -80 -21 -66 -18 -83 -22 -134 -30 -19 -3
-45 -10 -58 -15 -12 -4 -44 -11 -70 -14 -27 -4 -55 -8 -63 -10 -8 -3 -33 -7
-55 -10 -22 -4 -51 -8 -65 -11 -24 -4 -39 -6 -155 -20 -85 -10 -135 -13 -267
-18 -70 -3 -131 -6 -135 -8 -5 -3 -26 -3 -48 -2 -22 2 -105 6 -185 9 -189 8
-212 10 -380 30 -32 4 -97 15 -130 21 -14 3 -41 8 -60 10 -46 6 -301 63 -320
71 -8 3 -22 7 -30 8 -22 2 -272 79 -330 102 -8 4 -17 7 -20 8 -12 2 -171 66
-239 95 -68 29 -221 65 -221 51z"/>
<path d="M310 4676 c0 -2 4 -16 10 -31 5 -14 12 -36 14 -48 3 -12 8 -33 11
-47 3 -14 7 -37 10 -53 3 -15 12 -58 19 -95 8 -37 17 -89 21 -116 3 -27 8 -52
10 -56 2 -3 7 -36 10 -72 4 -35 8 -78 10 -94 27 -223 27 -768 0 -934 -2 -14
-6 -44 -9 -67 -6 -42 -13 -93 -21 -150 -3 -23 -35 -183 -50 -253 -18 -83 -72
-279 -105 -380 -43 -129 -146 -397 -161 -416 -31 -40 -31 -335 1 -393 5 -10
11 -29 14 -42 24 -113 134 -334 243 -488 131 -185 350 -414 520 -542 54 -41
99 -77 101 -81 2 -5 8 -8 13 -8 6 0 36 -18 68 -39 71 -49 258 -144 306 -157 6
-1 30 -10 54 -18 122 -44 331 -67 406 -44 16 5 37 11 47 13 9 2 30 11 47 19
16 9 37 16 46 16 8 0 15 5 15 10 0 6 6 10 13 10 7 0 53 16 103 36 49 20 96 38
104 40 8 2 42 13 75 25 33 11 65 22 70 23 6 2 17 6 25 9 55 21 379 102 455
113 17 3 41 7 55 10 41 9 137 24 265 39 291 36 655 36 965 1 148 -17 309 -43
372 -61 25 -7 49 -11 51 -8 3 2 14 0 24 -5 10 -5 34 -12 55 -15 20 -2 62 -12
95 -22 136 -40 319 -96 338 -104 76 -32 151 -61 158 -61 5 0 46 -18 91 -40 45
-21 104 -44 131 -50 77 -18 189 -15 290 7 11 2 30 6 43 9 13 2 53 16 90 30 37
14 72 27 77 28 33 7 308 155 325 175 3 3 28 21 55 40 172 118 427 366 540 525
11 16 29 40 41 55 11 14 42 62 69 106 27 44 55 87 62 96 7 8 13 22 13 29 0 7
6 21 14 29 11 14 31 59 81 186 4 11 9 25 11 30 43 156 46 176 46 275 0 113 -4
143 -31 205 -10 22 -24 55 -32 73 -8 17 -18 32 -23 32 -4 0 -72 28 -150 61
-153 67 -458 186 -546 213 -30 10 -68 24 -85 31 -16 7 -43 17 -60 21 -16 4
-34 9 -40 13 -5 3 -13 6 -17 7 -5 1 -9 2 -10 4 -2 1 -10 3 -18 5 -30 7 -265
76 -280 82 -8 3 -19 7 -25 8 -5 2 -57 15 -115 30 -58 15 -112 28 -120 30 -8 2
-44 11 -80 20 -36 9 -76 19 -90 21 -14 2 -45 9 -70 14 -25 6 -54 12 -65 14
-11 3 -40 9 -65 15 -25 5 -60 12 -77 15 -18 4 -48 9 -65 12 -32 6 -60 10 -115
18 -48 8 -157 26 -178 30 -11 2 -47 7 -80 10 -33 4 -77 9 -97 12 -21 3 -52 7
-70 9 -18 3 -58 7 -88 11 -30 3 -68 7 -85 9 -47 6 -225 19 -272 19 -24 1 -43
4 -43 8 0 4 -13 3 -29 -2 -16 -4 -32 -6 -35 -3 -17 18 -807 16 -835 -2 -6 -3
-11 -1 -11 5 0 6 -4 8 -10 5 -5 -3 -36 -8 -67 -10 -157 -12 -253 -20 -356 -30
l-38 -4 6 57 c8 63 10 84 20 222 4 52 9 118 11 145 3 28 6 223 8 435 2 361 -2
531 -14 544 -6 6 -39 12 -120 21 -30 4 -68 9 -85 11 -16 2 -50 6 -75 9 -25 3
-54 7 -65 9 -12 2 -48 7 -80 11 -33 4 -69 9 -80 12 -11 2 -33 6 -50 9 -16 3
-55 10 -85 15 -30 6 -66 12 -80 14 -26 4 -310 62 -345 71 -11 3 -31 7 -44 10
-14 3 -28 7 -31 9 -4 2 -22 7 -41 10 -37 7 -80 17 -144 35 -22 6 -47 13 -55
14 -8 1 -31 8 -51 14 -20 7 -47 15 -60 17 -101 20 -731 232 -831 280 -32 15
-88 29 -88 21z"/>
</g>
</svg>
